<svg id="visual" viewBox="0 0 900 600" width="900" height="600" xmlns="http://www.w3.org/2000/svg" xmlns:xlink="http://www.w3.org/1999/xlink" version="1.1"><rect x="0" y="0" width="900" height="600" fill="#038373"></rect><defs><linearGradient id="grad1_0" x1="33.3%" y1="100%" x2="100%" y2="0%"><stop offset="20%" stop-color="#00cc8e" stop-opacity="1"></stop><stop offset="80%" stop-color="#00cc8e" stop-opacity="1"></stop></linearGradient></defs><defs><linearGradient id="grad1_1" x1="33.3%" y1="100%" x2="100%" y2="0%"><stop offset="20%" stop-color="#00cc8e" stop-opacity="1"></stop><stop offset="80%" stop-color="#00b388" stop-opacity="1"></stop></linearGradient></defs><defs><linearGradient id="grad1_2" x1="33.3%" y1="100%" x2="100%" y2="0%"><stop offset="20%" stop-color="#009b7f" stop-opacity="1"></stop><stop offset="80%" stop-color="#00b388" stop-opacity="1"></stop></linearGradient></defs><defs><linearGradient id="grad1_3" x1="33.3%" y1="100%" x2="100%" y2="0%"><stop offset="20%" stop-color="#009b7f" stop-opacity="1"></stop><stop offset="80%" stop-color="#038373" stop-opacity="1"></stop></linearGradient></defs><defs><linearGradient id="grad2_0" x1="0%" y1="100%" x2="66.7%" y2="0%"><stop offset="20%" stop-color="#00cc8e" stop-opacity="1"></stop><stop offset="80%" stop-color="#00cc8e" stop-opacity="1"></stop></linearGradient></defs><defs><linearGradient id="grad2_1" x1="0%" y1="100%" x2="66.7%" y2="0%"><stop offset="20%" stop-color="#00b388" stop-opacity="1"></stop><stop offset="80%" stop-color="#00cc8e" stop-opacity="1"></stop></linearGradient></defs><defs><linearGradient id="grad2_2" x1="0%" y1="100%" x2="66.7%" y2="0%"><stop offset="20%" stop-color="#00b388" stop-opacity="1"></stop><stop offset="80%" stop-color="#009b7f" stop-opacity="1"></stop></linearGradient></defs><defs><linearGradient id="grad2_3" x1="0%" y1="100%" x2="66.7%" y2="0%"><stop offset="20%" stop-color="#038373" stop-opacity="1"></stop><stop offset="80%" stop-color="#009b7f" stop-opacity="1"></stop></linearGradient></defs><g transform="translate(900, 600)"><path d="M-351.5 0C-346.2 -49.3 -340.8 -98.6 -314.1 -130.1C-287.5 -161.6 -239.6 -175.3 -209.3 -209.3C-179.1 -243.3 -166.5 -297.7 -134.5 -324.8C-102.6 -351.9 -51.3 -351.7 0 -351.5L0 0Z" fill="#008f79"></path><path d="M-263.7 0C-259.6 -37 -255.6 -74 -235.6 -97.6C-215.6 -121.2 -179.7 -131.5 -157 -157C-134.3 -182.5 -124.9 -223.3 -100.9 -243.6C-76.9 -263.9 -38.5 -263.8 0 -263.7L0 0Z" fill="#00a784"></path><path d="M-175.8 0C-173.1 -24.7 -170.4 -49.3 -157.1 -65.1C-143.7 -80.8 -119.8 -87.6 -104.7 -104.7C-89.5 -121.7 -83.2 -148.8 -67.3 -162.4C-51.3 -175.9 -25.6 -175.9 0 -175.8L0 0Z" fill="#00c08b"></path><path d="M-87.9 0C-86.5 -12.3 -85.2 -24.7 -78.5 -32.5C-71.9 -40.4 -59.9 -43.8 -52.3 -52.3C-44.8 -60.8 -41.6 -74.4 -33.6 -81.2C-25.6 -88 -12.8 -87.9 0 -87.9L0 0Z" fill="#00cc8e"></path></g><g transform="translate(0, 0)"><path d="M351.5 0C304.5 38.1 257.4 76.2 217.1 89.9C176.8 103.7 143.2 93.1 137.2 137.2C131.2 181.2 152.8 279.9 134.5 324.8C116.3 369.6 58.1 360.6 0 351.5L0 0Z" fill="#008f79"></path><path d="M263.7 0C228.4 28.6 193.1 57.1 162.8 67.4C132.6 77.8 107.4 69.8 102.9 102.9C98.4 135.9 114.6 210 100.9 243.6C87.2 277.2 43.6 270.4 0 263.7L0 0Z" fill="#00a784"></path><path d="M175.8 0C152.2 19 128.7 38.1 108.6 45C88.4 51.8 71.6 46.6 68.6 68.6C65.6 90.6 76.4 140 67.3 162.4C58.1 184.8 29.1 180.3 0 175.8L0 0Z" fill="#00c08b"></path><path d="M87.9 0C76.1 9.5 64.4 19 54.3 22.5C44.2 25.9 35.8 23.3 34.3 34.3C32.8 45.3 38.2 70 33.6 81.2C29.1 92.4 14.5 90.1 0 87.9L0 0Z" fill="#00cc8e"></path></g></svg>